<?xml version="1.0" encoding="utf-8"?>
<svg width="2457px" height="519px" viewbox="0 0 2457 519" version="1.1" xmlns:xlink="http://www.w3.org/1999/xlink" xmlns="http://www.w3.org/2000/svg">
  <path d="M106.838 0L142.5 0L152 513L114 513L114 161.5L85.4304 484.5L66.5 484.5L38 162.363L38 513L0 513L9.5 0L49.5549 0L78.1987 353.226L106.838 0L106.838 0ZM1106.66 0L1106.66 28.5L1068.66 28.5L1068.66 513L1030.66 513L1030.66 28.5L992.659 28.5L992.659 0L1106.66 0L1106.66 0ZM2235.06 470.25C2235.06 477.375 2236.54 482.323 2239.51 485.094C2242.48 487.865 2245.75 489.25 2249.31 489.25C2252.87 489.25 2256.14 487.865 2259.11 485.094C2262.08 482.323 2263.56 477.375 2263.56 470.25L2263.56 313.5L2254.06 313.5L2254.06 285L2301.56 285L2301.56 470.25C2301.56 478.562 2300.08 485.737 2297.11 491.773C2294.14 497.81 2290.18 502.758 2285.23 506.617C2280.28 510.477 2274.69 513.297 2268.46 515.078C2262.22 516.859 2255.84 517.75 2249.31 517.75C2242.78 517.75 2236.4 516.859 2230.16 515.078C2223.93 513.297 2218.34 510.477 2213.39 506.617C2208.44 502.758 2204.48 497.81 2201.51 491.773C2198.54 485.737 2197.06 478.562 2197.06 470.25L2197.06 95C2197.06 86.6875 2198.54 79.513 2201.51 73.4766C2204.48 67.4401 2208.44 62.4922 2213.39 58.6328C2218.34 54.7734 2223.93 51.9531 2230.16 50.1719C2236.4 48.3906 2242.78 47.5 2249.31 47.5C2255.84 47.5 2262.22 48.3906 2268.46 50.1719C2274.69 51.9531 2280.28 54.7734 2285.23 58.6328C2290.18 62.4922 2294.14 67.3906 2297.11 73.3281C2300.08 79.2656 2301.56 86.3906 2301.56 94.7031L2301.56 247L2263.56 247L2263.56 94.7031C2263.56 87.5781 2262.08 82.6797 2259.11 80.0078C2256.14 77.3359 2252.87 76 2249.31 76C2245.75 76 2242.48 77.3359 2239.51 80.0078C2236.54 82.6797 2235.06 87.5781 2235.06 94.7031L2235.06 470.25L2235.06 470.25ZM1379.26 247L1341.26 247L1341.26 98.697C1341.26 91.9184 1339.58 87.0841 1336.21 84.1942C1332.85 81.3043 1328.99 79.8594 1324.63 79.8594C1322.06 79.8594 1319.54 80.307 1317.06 81.2023C1314.59 82.0975 1312.31 83.3902 1310.24 85.0802C1308.16 86.7702 1306.48 88.7594 1305.19 91.0479C1303.9 93.3363 1303.26 95.8736 1303.26 98.6599L1303.26 471.043C1303.26 473.83 1303.9 476.416 1305.19 478.804C1306.48 481.191 1308.16 483.23 1310.24 484.92C1312.31 486.61 1314.59 487.902 1317.06 488.798C1319.54 489.693 1322.06 490.141 1324.63 490.141C1328.99 490.141 1332.85 488.649 1336.21 485.667C1339.58 482.684 1341.26 477.811 1341.26 471.048L1341.26 304L1379.26 304L1379.26 470.25C1379.26 478.167 1377.58 485.143 1374.21 491.18C1370.85 497.216 1366.49 502.263 1361.15 506.32C1355.81 510.378 1349.67 513.445 1342.74 515.523C1335.82 517.602 1328.79 518.641 1321.67 518.641C1314.54 518.641 1307.61 517.651 1300.88 515.672C1294.16 513.693 1288.12 510.674 1282.78 506.617C1277.43 502.56 1273.18 497.513 1270.01 491.477C1266.84 485.44 1265.26 478.365 1265.26 470.25L1265.26 99.75C1265.26 91.8333 1266.89 84.8073 1270.16 78.6719C1273.42 72.5365 1277.73 67.4896 1283.07 63.5313C1288.42 59.5729 1294.55 56.5547 1301.48 54.4766C1308.41 52.3984 1315.43 51.3594 1322.56 51.3594C1329.68 51.3594 1336.61 52.349 1343.34 54.3281C1350.07 56.3073 1356.1 59.3255 1361.45 63.3828C1366.79 67.4401 1371.1 72.487 1374.36 78.5234C1377.63 84.5599 1379.26 91.6354 1379.26 99.75L1379.26 247L1379.26 247ZM725.7 470.25C725.7 478.563 724.166 485.737 721.098 491.773C718.031 497.81 713.924 502.807 708.778 506.766C703.632 510.724 697.794 513.643 691.263 515.523C684.731 517.404 678.002 518.344 671.075 518.344C663.752 518.344 656.528 517.305 649.403 515.227C642.278 513.148 635.945 510.081 630.403 506.023C624.861 501.966 620.359 496.919 616.895 490.883C613.432 484.846 611.7 477.969 611.7 470.25L611.7 99.75C611.7 92.2292 613.432 85.5495 616.895 79.7109C620.359 73.8724 624.911 68.974 630.552 65.0156C636.192 61.0573 642.575 58.0391 649.7 55.9609C656.825 53.8828 664.049 52.8438 671.372 52.8438C678.299 52.8438 685.028 53.7839 691.559 55.6641C698.091 57.5443 703.88 60.4141 708.927 64.2734C713.973 68.1328 718.031 73.0313 721.098 78.9688C724.166 84.9063 725.7 91.8333 725.7 99.75L725.7 470.25L725.7 470.25ZM1873.66 470.25C1873.66 478.563 1872.13 485.737 1869.06 491.773C1865.99 497.81 1861.88 502.807 1856.74 506.766C1851.59 510.724 1845.75 513.643 1839.22 515.523C1832.69 517.404 1825.96 518.344 1819.03 518.344C1811.71 518.344 1804.49 517.305 1797.36 515.227C1790.24 513.148 1783.9 510.081 1778.36 506.023C1772.82 501.966 1768.32 496.919 1764.85 490.883C1761.39 484.846 1759.66 477.969 1759.66 470.25L1759.66 99.75C1759.66 92.2292 1761.39 85.5495 1764.85 79.7109C1768.32 73.8724 1772.87 68.974 1778.51 65.0156C1784.15 61.0573 1790.53 58.0391 1797.66 55.9609C1804.78 53.8828 1812.01 52.8438 1819.33 52.8438C1826.26 52.8438 1832.99 53.7839 1839.52 55.6641C1846.05 57.5443 1851.84 60.4141 1856.89 64.2734C1861.93 68.1328 1865.99 73.0313 1869.06 78.9688C1872.13 84.9063 1873.66 91.8333 1873.66 99.75L1873.66 470.25L1873.66 470.25ZM2146.26 470.25C2146.26 478.563 2144.73 485.737 2141.66 491.773C2138.59 497.81 2134.48 502.807 2129.34 506.766C2124.19 510.724 2118.35 513.643 2111.82 515.523C2105.29 517.404 2098.56 518.344 2091.63 518.344C2084.31 518.344 2077.09 517.305 2069.96 515.227C2062.84 513.148 2056.5 510.081 2050.96 506.023C2045.42 501.966 2040.92 496.919 2037.46 490.883C2033.99 484.846 2032.26 477.969 2032.26 470.25L2032.26 99.75C2032.26 92.2292 2033.99 85.5495 2037.46 79.7109C2040.92 73.8724 2045.47 68.974 2051.11 65.0156C2056.75 61.0573 2063.13 58.0391 2070.26 55.9609C2077.38 53.8828 2084.61 52.8438 2091.93 52.8438C2098.86 52.8438 2105.59 53.7839 2112.12 55.6641C2118.65 57.5443 2124.44 60.4141 2129.49 64.2734C2134.53 68.1328 2138.59 73.0313 2141.66 78.9688C2144.73 84.9063 2146.26 91.8333 2146.26 99.75L2146.26 470.25L2146.26 470.25ZM245.55 57L245.55 513L207.55 513L207.55 57L245.55 57L245.55 57ZM405.6 247C405.6 256.5 403.225 263.823 398.475 268.969C393.725 274.115 386.6 277.776 377.1 279.953C386.6 282.526 393.725 286.385 398.475 291.531C403.225 296.677 405.6 304 405.6 313.5L405.6 513L367.6 513L367.6 313.5C367.6 308.75 367.006 305.089 365.819 302.516C364.631 299.943 362.85 298.063 360.475 296.875C358.1 295.688 355.131 294.995 351.569 294.797C348.006 294.599 343.85 294.5 339.1 294.5L339.1 513L301.1 513L301.1 57L343.85 57C356.715 57 367.748 58.0391 376.952 60.1172C386.155 62.1953 393.23 65.8568 398.178 71.1016C403.126 76.3464 405.6 84.3125 405.6 95L405.6 247L405.6 247ZM560.9 247C560.9 256.5 558.525 263.823 553.775 268.969C549.025 274.115 541.9 277.776 532.4 279.953C541.9 282.526 549.025 286.385 553.775 291.531C558.525 296.677 560.9 304 560.9 313.5L560.9 513L522.9 513L522.9 313.5C522.9 308.75 522.306 305.089 521.119 302.516C519.931 299.943 518.15 298.063 515.775 296.875C513.4 295.688 510.431 294.995 506.869 294.797C503.306 294.599 499.15 294.5 494.4 294.5L494.4 513L456.4 513L456.4 57L499.15 57C512.015 57 523.048 58.0391 532.252 60.1172C541.455 62.1953 548.53 65.8568 553.478 71.1016C558.426 76.3464 560.9 84.3125 560.9 95L560.9 247L560.9 247ZM881 247C881 256.5 878.625 263.823 873.875 268.969C869.125 274.115 862 277.776 852.5 279.953C862 282.526 869.125 286.385 873.875 291.531C878.625 296.677 881 304 881 313.5L881 513L843 513L843 313.5C843 308.75 842.406 305.089 841.219 302.516C840.031 299.943 838.25 298.063 835.875 296.875C833.5 295.688 830.531 294.995 826.969 294.797C823.406 294.599 819.25 294.5 814.5 294.5L814.5 513L776.5 513L776.5 57L819.25 57C832.115 57 843.148 58.0391 852.352 60.1172C861.555 62.1953 868.63 65.8568 873.578 71.1016C878.526 76.3464 881 84.3125 881 95L881 247L881 247ZM1223.96 85.5L1185.96 85.5L1185.96 256.5L1223.96 256.5L1223.96 285L1185.96 285L1185.96 484.5L1223.96 484.5L1223.96 513L1147.96 513L1147.96 57L1223.96 57L1223.96 85.5L1223.96 85.5ZM1506.06 57L1544.06 57L1544.06 513L1506.06 513L1506.06 291.531L1468.06 291.531L1468.06 513L1430.06 513L1430.06 57L1468.06 57L1468.06 263.031L1506.06 263.031L1506.06 57L1506.06 57ZM1708.86 513L1680.36 513L1628.11 248.262L1628.11 513L1594.86 513L1594.86 57L1623.36 57L1675.91 323.292L1675.91 57L1708.86 57L1708.86 513L1708.86 513ZM1962.46 57L1962.46 484.5L2000.46 484.5L2000.46 513L1924.46 513L1924.46 57L1962.46 57L1962.46 57ZM2409.4 171.005L2418.86 57L2456.85 57L2418.86 361L2418.86 513L2380.86 513L2380.86 361L2342.86 57L2380.86 57L2390.37 171L2399.88 294.5L2409.4 171.005L2409.4 171.005ZM687.7 100.075C687.7 93.3363 686.067 88.5298 682.802 85.6554C679.536 82.781 675.726 81.3438 671.372 81.3438C668.799 81.3438 666.226 81.7898 663.653 82.682C661.08 83.5742 658.755 84.8622 656.677 86.546C654.598 88.2299 652.916 90.2121 651.63 92.4928C650.343 94.7735 649.7 97.3008 649.7 100.075L649.7 471.113C649.7 473.887 650.343 476.464 651.63 478.843C652.916 481.223 654.598 483.205 656.677 484.79C658.755 486.375 661.031 487.613 663.505 488.505C665.979 489.398 668.502 489.844 671.075 489.844C675.429 489.844 679.289 488.407 682.653 485.532C686.018 482.658 687.7 477.851 687.7 471.113L687.7 100.075L687.7 100.075ZM1835.66 100.075C1835.66 93.3363 1834.03 88.5298 1830.76 85.6554C1827.5 82.781 1823.69 81.3438 1819.33 81.3438C1816.76 81.3438 1814.19 81.7898 1811.61 82.682C1809.04 83.5742 1806.71 84.8622 1804.64 86.546C1802.56 88.2299 1800.88 90.2121 1799.59 92.4928C1798.3 94.7735 1797.66 97.3008 1797.66 100.075L1797.66 471.113C1797.66 473.887 1798.3 476.464 1799.59 478.843C1800.88 481.223 1802.56 483.205 1804.64 484.79C1806.71 486.375 1808.99 487.613 1811.46 488.505C1813.94 489.398 1816.46 489.844 1819.03 489.844C1823.39 489.844 1827.25 488.407 1830.61 485.532C1833.98 482.658 1835.66 477.851 1835.66 471.113L1835.66 100.075L1835.66 100.075ZM2108.26 100.075C2108.26 93.3363 2106.63 88.5298 2103.36 85.6554C2100.1 82.781 2096.29 81.3438 2091.93 81.3438C2089.36 81.3438 2086.79 81.7898 2084.21 82.682C2081.64 83.5742 2079.31 84.8622 2077.24 86.546C2075.16 88.2299 2073.48 90.2121 2072.19 92.4928C2070.9 94.7735 2070.26 97.3008 2070.26 100.075L2070.26 471.113C2070.26 473.887 2070.9 476.464 2072.19 478.843C2073.48 481.223 2075.16 483.205 2077.24 484.79C2079.31 486.375 2081.59 487.613 2084.06 488.505C2086.54 489.398 2089.06 489.844 2091.63 489.844C2095.99 489.844 2099.85 488.407 2103.21 485.532C2106.58 482.658 2108.26 477.851 2108.26 471.113L2108.26 100.075L2108.26 100.075ZM367.6 104.5C367.6 99.75 367.006 96.0885 365.819 93.5156C364.631 90.9427 362.85 89.0625 360.475 87.875C358.1 86.6875 355.131 85.9948 351.569 85.7969C348.006 85.599 343.85 85.5 339.1 85.5L339.1 266C343.85 266 348.006 265.901 351.569 265.703C355.131 265.505 358.1 264.813 360.475 263.625C362.85 262.438 364.631 260.557 365.819 257.984C367.006 255.411 367.6 251.75 367.6 247L367.6 104.5L367.6 104.5ZM522.9 104.5C522.9 99.75 522.306 96.0885 521.119 93.5156C519.931 90.9427 518.15 89.0625 515.775 87.875C513.4 86.6875 510.431 85.9948 506.869 85.7969C503.306 85.599 499.15 85.5 494.4 85.5L494.4 266C499.15 266 503.306 265.901 506.869 265.703C510.431 265.505 513.4 264.813 515.775 263.625C518.15 262.438 519.931 260.557 521.119 257.984C522.306 255.411 522.9 251.75 522.9 247L522.9 104.5L522.9 104.5ZM843 104.5C843 99.75 842.406 96.0885 841.219 93.5156C840.031 90.9427 838.25 89.0625 835.875 87.875C833.5 86.6875 830.531 85.9948 826.969 85.7969C823.406 85.599 819.25 85.5 814.5 85.5L814.5 266C819.25 266 823.406 265.901 826.969 265.703C830.531 265.505 833.5 264.813 835.875 263.625C838.25 262.438 840.031 260.557 841.219 257.984C842.406 255.411 843 251.75 843 247L843 104.5L843 104.5Z" id="Vector" fill="#252525" fill-rule="evenodd" stroke="none" />
</svg>